<?xml version="1.0" encoding="UTF-8"?>
<!DOCTYPE svg PUBLIC "-//W3C//DTD SVG 1.1//EN" "http://www.w3.org/Graphics/SVG/1.1/DTD/svg11.dtd">
<svg version="1.1" xmlns="http://www.w3.org/2000/svg" xmlns:xlink="http://www.w3.org/1999/xlink" x="0" y="0" width="32" height="32" viewBox="0, 0, 32, 32">
  <g id="Layer_1">
    <path d="M21.723,10.864 C23.205,10.865 24.407,12.265 24.407,13.992 L24.407,27.334 C24.407,29.062 23.205,30.462 21.723,30.462 L10.273,30.461 C8.791,30.462 7.59,29.062 7.59,27.334 L7.59,13.992 C7.681,13.319 7.59,13.808 7.695,13.417 L9.191,14.661 C9.275,15.315 9.978,15.49 10.487,15.477 C11.19,15.458 11.752,14.91 11.752,14.211 L11.785,14.022 L14.442,10.865 L21.723,10.864 z M22.23,25.822 L9.766,25.822 C9.272,25.822 8.871,26.222 8.871,26.716 L8.871,26.876 C8.871,27.37 9.272,27.77 9.766,27.77 L22.23,27.77 C22.724,27.77 23.125,27.37 23.125,26.876 L23.125,26.716 C23.125,26.222 22.724,25.822 22.23,25.822 z M22.23,22.569 L9.766,22.569 C9.272,22.569 8.871,22.969 8.871,23.463 L8.871,23.622 C8.871,24.117 9.272,24.517 9.766,24.517 L22.23,24.517 C22.724,24.517 23.125,24.117 23.125,23.622 L23.125,23.463 C23.125,22.969 22.724,22.569 22.23,22.569 z M22.23,19.464 L9.766,19.464 C9.272,19.464 8.871,19.865 8.871,20.359 L8.871,20.518 C8.871,21.012 9.272,21.413 9.766,21.412 L22.23,21.413 C22.724,21.413 23.125,21.012 23.125,20.518 L23.125,20.359 C23.125,19.865 22.724,19.464 22.23,19.464 z M22.23,16.342 L9.766,16.342 C9.272,16.342 8.871,16.743 8.871,17.237 L8.871,17.396 C8.871,17.89 9.272,18.29 9.766,18.29 L22.23,18.29 C22.724,18.29 23.125,17.89 23.125,17.396 L23.125,17.237 C23.125,16.743 22.724,16.342 22.23,16.342 z M22.23,13.237 L14.845,13.237 L14.845,13.237 L13.134,13.237 C12.64,13.237 12.24,13.638 12.239,14.132 L12.24,14.291 C12.24,14.785 12.64,15.186 13.134,15.186 L16.433,15.186 L22.23,15.186 C22.724,15.186 23.125,14.785 23.125,14.291 L23.125,14.132 C23.125,13.638 22.724,13.237 22.23,13.237 z"/>
    <path d="M12.398,10.864 L10.596,13.027 L10.418,12.991 C10.164,12.991 9.995,12.991 9.75,13.198 L8.266,11.989 C8.724,11.246 9.447,10.962 10.273,10.865 L12.398,10.864 z"/>
    <path d="M14.079,9.754 L14.214,9.821 L14.349,9.922 C14.509,10.057 14.44,10.286 14.306,10.446 L13.964,10.853 L13.964,10.853 L10.569,14.9 C10.287,15.113 10.077,14.97 10.033,14.946 L8.048,13.281 L7.725,13.02 C7.565,12.885 7.544,12.646 7.678,12.486 L7.722,12.434 C7.856,12.274 8.095,12.253 8.256,12.387 L8.579,12.649 L10.223,14.028 L13.332,10.322 L13.332,10.322 L13.673,9.916 C13.911,9.72 13.759,9.821 14.079,9.754 z"/>
    <path d="M16.226,0.366 L16.453,0.501 L16.524,0.571 L16.597,0.625 L16.646,0.693 L31.839,15.886 C32.095,16.143 32.04,16.615 31.714,16.94 C31.389,17.265 30.917,17.321 30.661,17.064 L28.587,14.991 L28.587,31.329 C28.587,31.7 28.214,32 27.754,32 C27.294,32 26.921,31.7 26.921,31.329 L26.921,13.325 L15.998,2.402 L5.075,13.325 L5.075,31.329 C5.075,31.7 4.702,32 4.242,32 C3.782,32 3.409,31.7 3.409,31.329 L3.409,14.991 L1.336,17.064 C1.079,17.321 0.607,17.265 0.282,16.94 C-0.043,16.615 -0.099,16.143 0.158,15.886 L15.35,0.693 L15.4,0.625 L15.473,0.571 L15.543,0.501 L15.77,0.366 L15.998,0.386 L16.226,0.366 z"/>
  </g>
</svg>
